<svg width="145" height="32" viewBox="0 0 145 32" fill="none" xmlns="http://www.w3.org/2000/svg">
<path d="M23.3592 24.6617V8.07462H28.5542C28.7078 8.07462 28.9919 8.07846 29.4066 8.08614C29.8289 8.09382 30.2321 8.12453 30.6161 8.17829C31.9138 8.33955 33.0043 8.80414 33.8874 9.57206C34.7782 10.34 35.4501 11.3152 35.9032 12.4978C36.3563 13.6728 36.5828 14.9629 36.5828 16.3682C36.5828 17.7811 36.3563 19.0789 35.9032 20.2615C35.4501 21.4364 34.7782 22.4078 33.8874 23.1758C33.0043 23.936 31.9138 24.3967 30.6161 24.558C30.2321 24.6118 29.8289 24.6425 29.4066 24.6502C28.9919 24.6578 28.7078 24.6617 28.5542 24.6617H23.3592ZM25.8242 22.3694H28.5542C28.8153 22.3694 29.1263 22.3618 29.4872 22.3464C29.8481 22.331 30.1668 22.3003 30.4433 22.2543C31.288 22.093 31.9714 21.7282 32.4936 21.16C33.0235 20.584 33.4113 19.8775 33.657 19.0405C33.9028 18.2035 34.0256 17.3127 34.0256 16.3682C34.0256 15.3929 33.8989 14.4906 33.6455 13.6612C33.3921 12.8242 33.0004 12.1254 32.4706 11.5648C31.9484 10.9966 31.2726 10.6356 30.4433 10.482C30.1668 10.4283 29.8443 10.3976 29.4757 10.3899C29.1148 10.3745 28.8076 10.3669 28.5542 10.3669H25.8242V22.3694ZM44.7826 25.0072C43.5462 25.0072 42.4596 24.7385 41.5227 24.2009C40.5935 23.6557 39.8679 22.8993 39.3457 21.9317C38.8312 20.9565 38.5739 19.8276 38.5739 18.5452C38.5739 17.186 38.8273 16.0072 39.3342 15.0089C39.8487 14.0106 40.5628 13.2389 41.4767 12.6937C42.3905 12.1484 43.4541 11.8758 44.6674 11.8758C45.9344 11.8758 47.0134 12.1715 47.9041 12.7628C48.7949 13.3464 49.4592 14.1796 49.8969 15.2623C50.3423 16.3451 50.5189 17.6314 50.4268 19.1211H48.0193V18.2457C48.004 16.802 47.7275 15.7346 47.19 15.0435C46.6601 14.3524 45.85 14.0068 44.7595 14.0068C43.5539 14.0068 42.6477 14.3869 42.0411 15.1472C41.4344 15.9074 41.1311 17.0055 41.1311 18.4415C41.1311 19.8084 41.4344 20.8682 42.0411 21.6207C42.6477 22.3656 43.5232 22.738 44.6674 22.738C45.4199 22.738 46.0688 22.5691 46.614 22.2312C47.1669 21.8857 47.597 21.3942 47.9041 20.7568L50.2655 21.5055C49.7817 22.619 49.0483 23.4829 48.0654 24.0973C47.0825 24.7039 45.9882 25.0072 44.7826 25.0072ZM40.3478 19.1211V17.2436H49.2288V19.1211H40.3478ZM57.7684 24.9957C56.2556 24.9957 55.0231 24.6617 54.0708 23.9936C53.1186 23.3255 52.535 22.3848 52.32 21.1715L54.785 20.7914C54.9386 21.4364 55.2918 21.9471 55.8447 22.3234C56.4053 22.692 57.1003 22.8763 57.9296 22.8763C58.6822 22.8763 59.2697 22.7227 59.692 22.4155C60.122 22.1083 60.3371 21.686 60.3371 21.1484C60.3371 20.8336 60.2603 20.5802 60.1067 20.3882C59.9608 20.1886 59.6498 20.0004 59.1737 19.8238C58.6976 19.6472 57.9719 19.4283 56.9966 19.1672C55.9292 18.8908 55.0807 18.5951 54.451 18.2803C53.8289 17.9577 53.3836 17.5853 53.1148 17.1629C52.8537 16.7329 52.7231 16.2146 52.7231 15.6079C52.7231 14.8553 52.9228 14.1988 53.3221 13.6382C53.7214 13.0776 54.282 12.6437 55.0039 12.3366C55.7334 12.0294 56.5858 11.8758 57.561 11.8758C58.5133 11.8758 59.3618 12.0256 60.1067 12.3251C60.8516 12.6245 61.4544 13.0507 61.9151 13.6036C62.3759 14.1489 62.6523 14.7901 62.7445 15.5273L60.2795 15.9765C60.195 15.3775 59.9147 14.9053 59.4386 14.5597C58.9625 14.2141 58.3443 14.026 57.5841 13.9953C56.8545 13.9646 56.2633 14.0874 55.8102 14.3639C55.3571 14.6327 55.1306 15.0051 55.1306 15.4812C55.1306 15.7577 55.215 15.9919 55.384 16.1838C55.5606 16.3758 55.8985 16.5601 56.3976 16.7368C56.8968 16.9134 57.634 17.1246 58.6092 17.3703C59.6536 17.6391 60.483 17.9385 61.0973 18.2688C61.7116 18.5913 62.1494 18.9791 62.4104 19.4321C62.6792 19.8775 62.8136 20.4189 62.8136 21.0563C62.8136 22.285 62.3644 23.2487 61.4659 23.9475C60.5751 24.6463 59.3426 24.9957 57.7684 24.9957ZM65.3508 24.6617L65.3623 8.07462H67.8043V18.2112L72.6883 12.2214H75.7523L70.5919 18.4415L76.2821 24.6617H73.0108L67.8043 18.6719V24.6617H65.3508ZM92.3489 24.6617L92.3604 16.9095C92.3604 16.0111 92.13 15.3123 91.6693 14.8131C91.2085 14.3063 90.6019 14.0529 89.8493 14.0529C89.3885 14.0529 88.9662 14.1604 88.5822 14.3754C88.2059 14.5827 87.8988 14.8976 87.6607 15.3199C87.4303 15.7346 87.3152 16.2568 87.3152 16.8865L86.1518 16.299C86.1364 15.4236 86.3207 14.6557 86.7047 13.9953C87.0963 13.3349 87.6262 12.8242 88.2943 12.4633C88.9623 12.0947 89.7111 11.9104 90.5404 11.9104C91.8843 11.9104 92.9248 12.3135 93.662 13.1198C94.3992 13.9262 94.7678 14.9974 94.7678 16.3336L94.7563 24.6617H92.3489ZM77.432 24.6617V12.2214H79.5745V15.8152H79.851V24.6617H77.432ZM84.8962 24.6617L84.9077 16.9556C84.9077 16.0495 84.6774 15.3391 84.2166 14.8246C83.7635 14.3101 83.153 14.0529 82.3851 14.0529C81.6249 14.0529 81.0105 14.314 80.5421 14.8362C80.0814 15.3583 79.851 16.0418 79.851 16.8865L78.6991 16.1493C78.6991 15.3353 78.8949 14.6096 79.2866 13.9722C79.6782 13.3349 80.2081 12.8319 80.8762 12.4633C81.5442 12.0947 82.3006 11.9104 83.1454 11.9104C84.0285 11.9104 84.781 12.0985 85.403 12.4748C86.0251 12.8434 86.4973 13.3617 86.8199 14.0298C87.1501 14.6979 87.3152 15.4735 87.3152 16.3566L87.3036 24.6617H84.8962ZM101.272 25.0072C100.351 25.0072 99.5789 24.8383 98.9569 24.5004C98.3349 24.1549 97.8626 23.7018 97.5401 23.1412C97.2252 22.5729 97.0678 21.9509 97.0678 21.2752C97.0678 20.6455 97.1791 20.0926 97.4018 19.6165C97.6245 19.1403 97.9547 18.7372 98.3925 18.407C98.8302 18.0691 99.3677 17.7965 100.005 17.5891C100.558 17.4279 101.184 17.2858 101.883 17.1629C102.581 17.0401 103.315 16.9249 104.083 16.8174C104.858 16.7099 105.626 16.6024 106.387 16.4949L105.511 16.9786C105.526 16.0034 105.319 15.2815 104.889 14.8131C104.467 14.337 103.737 14.0989 102.7 14.0989C102.048 14.0989 101.449 14.2525 100.904 14.5597C100.358 14.8592 99.9782 15.3583 99.7632 16.0571L97.517 15.366C97.8242 14.2986 98.4078 13.4501 99.2679 12.8204C100.136 12.1907 101.288 11.8758 102.724 11.8758C103.837 11.8758 104.805 12.0678 105.626 12.4518C106.456 12.828 107.062 13.427 107.446 14.2487C107.646 14.6557 107.769 15.0857 107.815 15.5388C107.861 15.9919 107.884 16.4795 107.884 17.0017V24.6617H105.753V21.8165L106.168 22.1851C105.653 23.1374 104.997 23.8477 104.198 24.3161C103.407 24.7769 102.432 25.0072 101.272 25.0072ZM101.698 23.0375C102.382 23.0375 102.969 22.9185 103.461 22.6804C103.952 22.4347 104.348 22.1237 104.647 21.7474C104.947 21.3711 105.142 20.9795 105.235 20.5725C105.365 20.2039 105.438 19.7892 105.453 19.3285C105.477 18.8677 105.488 18.4991 105.488 18.2227L106.271 18.5106C105.511 18.6258 104.82 18.7295 104.198 18.8217C103.576 18.9138 103.011 19.006 102.505 19.0981C102.006 19.1826 101.56 19.2862 101.168 19.4091C100.838 19.5243 100.543 19.6625 100.282 19.8238C100.028 19.9851 99.8246 20.1809 99.671 20.4112C99.5251 20.6416 99.4522 20.9219 99.4522 21.2521C99.4522 21.5746 99.5328 21.8741 99.6941 22.1506C99.8553 22.4194 100.101 22.6344 100.431 22.7956C100.761 22.9569 101.184 23.0375 101.698 23.0375ZM111.859 30.1907L114.267 23.6365L114.301 25.5717L108.876 12.2214H111.387L115.442 22.5307H114.705L118.575 12.2214H121.017L114.152 30.1907H111.859ZM130.862 24.6617C130.079 24.8153 129.311 24.8805 128.559 24.8575C127.806 24.8345 127.134 24.6886 126.543 24.4198C125.951 24.151 125.506 23.7287 125.207 23.1527C124.938 22.6382 124.792 22.116 124.769 21.5862C124.754 21.0486 124.746 20.442 124.746 19.7662V8.76575H127.165V19.651C127.165 20.1502 127.169 20.584 127.176 20.9526C127.192 21.3212 127.272 21.6322 127.418 21.8857C127.695 22.3618 128.132 22.6344 128.731 22.7035C129.338 22.7649 130.048 22.738 130.862 22.6229V24.6617ZM122.361 14.1565V12.2214H130.862V14.1565H122.361ZM138.44 25.0072C137.204 25.0072 136.117 24.7385 135.18 24.2009C134.251 23.6557 133.526 22.8993 133.003 21.9317C132.489 20.9565 132.232 19.8276 132.232 18.5452C132.232 17.186 132.485 16.0072 132.992 15.0089C133.506 14.0106 134.221 13.2389 135.134 12.6937C136.048 12.1484 137.112 11.8758 138.325 11.8758C139.592 11.8758 140.671 12.1715 141.562 12.7628C142.453 13.3464 143.117 14.1796 143.555 15.2623C144 16.3451 144.177 17.6314 144.084 19.1211H141.677V18.2457C141.662 16.802 141.385 15.7346 140.848 15.0435C140.318 14.3524 139.508 14.0068 138.417 14.0068C137.212 14.0068 136.305 14.3869 135.699 15.1472C135.092 15.9074 134.789 17.0055 134.789 18.4415C134.789 19.8084 135.092 20.8682 135.699 21.6207C136.305 22.3656 137.181 22.738 138.325 22.738C139.078 22.738 139.727 22.5691 140.272 22.2312C140.825 21.8857 141.255 21.3942 141.562 20.7568L143.923 21.5055C143.439 22.619 142.706 23.4829 141.723 24.0973C140.74 24.7039 139.646 25.0072 138.44 25.0072ZM134.006 19.1211V17.2436H142.886V19.1211H134.006Z" fill="url(#paint0_linear_67_164)"/>
<path d="M1.58341 0.11856L0.373589 0.0983843L0.234818 18.7074C0.214982 21.3842 0.942275 23.9937 2.29716 26.1072C3.65201 28.2207 5.5539 29.7125 7.69023 30.3373C7.7355 30.3503 7.77574 30.3633 7.80846 30.37C7.83362 30.3766 7.85878 30.3832 7.88396 30.3866L7.88394 30.3897L7.88646 30.3898C7.889 30.3867 7.88898 30.3898 7.88898 30.3898L7.89402 30.3899C7.90027 30.3938 7.90713 30.3961 7.91414 30.3964C7.91511 30.3976 7.91631 30.3984 7.91762 30.399C7.91893 30.3996 7.92029 30.3997 7.92168 30.3996C8.29743 30.496 8.67732 30.566 9.0595 30.6092C9.30634 30.6348 9.5583 30.6513 9.81034 30.6555C9.9288 30.6575 10.0473 30.6595 10.1633 30.6522C11.2232 30.6096 12.2612 30.2815 13.2029 29.6913C12.5741 29.3691 11.9638 28.9952 11.3761 28.5724C9.30844 27.0957 7.54479 25.06 6.22168 22.6229C6.01147 22.3203 5.82803 21.9916 5.67443 21.6422C5.67193 21.6391 5.67193 21.6391 5.67195 21.636C5.57357 21.4165 5.48767 21.1891 5.41487 20.9553C5.19318 20.2647 5.08311 19.5288 5.09073 18.7883L5.18532 6.10362L7.56463 6.1433C7.94416 6.14889 8.322 6.20989 8.69005 6.32502L8.69762 6.32515C9.22314 6.49149 9.72223 6.76492 10.1738 7.13382C10.4136 7.32796 10.6381 7.5489 10.8444 7.79377C9.54731 5.52529 7.86275 3.62555 5.90744 2.22614C4.56055 1.26195 3.10267 0.55136 1.58341 0.11856Z" fill="url(#paint1_linear_67_164)"/>
<path d="M7.6027 0.21531L1.58078 0.114842C3.09927 0.547384 4.55642 1.25776 5.90261 2.22176C7.85649 3.62073 9.53979 5.51986 10.8359 7.78763C11.3111 8.3413 11.688 9.0082 11.943 9.74655C12.198 10.4849 12.3255 11.2789 12.3178 12.0787L12.2449 21.8612C12.2387 22.6302 11.9825 23.3634 11.5326 23.8995C11.0827 24.4355 10.4759 24.7306 9.84574 24.7197C9.15307 24.7092 8.46986 24.5153 7.84327 24.1514C7.21669 23.7875 6.66169 23.2623 6.21661 22.6121C7.53845 25.0482 9.30041 27.0832 11.3662 28.5596C11.9534 28.9823 12.5633 29.3561 13.1917 29.6782C14.3596 28.9477 15.3406 27.8413 16.029 26.4781C16.7174 25.1149 17.087 23.5466 17.0982 21.9422L17.1711 12.1597C17.1909 9.54247 16.4961 6.98772 15.1963 4.89842C13.8965 2.80912 12.0657 1.30417 9.99262 0.620959C9.98473 0.616123 9.97624 0.612878 9.96751 0.611319C9.19522 0.360679 8.4009 0.227643 7.6027 0.21531Z" fill="url(#paint2_linear_67_164)"/>
<g style="mix-blend-mode:multiply" opacity="0.15">
<g style="mix-blend-mode:multiply" opacity="0.15">
<path d="M1.60886 0.122827L0.401102 0.0984202C0.401102 0.0984202 3.51205 0.414455 6.24642 5.89968C6.27874 5.96439 6.31106 6.02911 6.34335 6.09687L7.58886 6.12204C7.96775 6.12897 8.34502 6.19089 8.71259 6.30643L8.72014 6.30658C9.24498 6.47356 9.74358 6.74662 10.1949 7.11427C10.4345 7.30776 10.6589 7.52779 10.8652 7.77148C9.5673 5.51607 7.8831 3.62511 5.92928 2.22957C4.5831 1.26792 3.12645 0.557632 1.60886 0.122827Z" fill="#0A0A0A"/>
</g>
</g>
<g style="mix-blend-mode:multiply" opacity="0.15">
<g style="mix-blend-mode:multiply" opacity="0.15">
<path d="M5.38274 20.9665C5.38274 20.9665 5.41633 25.3521 9.03867 30.5943C9.2855 30.6208 9.53743 30.6381 9.78943 30.6432C9.90787 30.6456 10.0263 30.648 10.1423 30.6412C11.202 30.6027 12.2393 30.2797 13.1801 29.6954C12.551 29.3722 11.9402 28.9976 11.3521 28.5743C9.28282 27.0961 7.51677 25.0623 6.19064 22.6303C5.98005 22.3282 5.79622 22.0001 5.64217 21.6516C5.63967 21.6485 5.63967 21.6485 5.63969 21.6454C5.54138 21.4264 5.45551 21.1996 5.38274 20.9665Z" fill="#0A0A0A"/>
</g>
</g>
<g style="mix-blend-mode:multiply" opacity="0.3">
<g style="mix-blend-mode:multiply" opacity="0.3">
<path d="M7.85758 30.4049C7.86387 30.4083 7.87057 30.4107 7.87744 30.4119C7.87462 30.4085 7.86893 30.4084 7.86326 30.405L7.85758 30.4049Z" fill="#0A0A0A"/>
</g>
</g>
<g style="mix-blend-mode:multiply" opacity="0.3">
<g style="mix-blend-mode:multiply" opacity="0.3">
<path d="M0.327008 1.56051L0.221233 18.7008C0.204849 21.3763 0.94076 23.9873 2.30801 26.1048C3.67523 28.2222 5.5925 29.7202 7.7447 30.3524C7.79032 30.3656 7.83085 30.3787 7.86381 30.3856C7.88882 30.394 7.91421 30.4007 7.93984 30.4055L7.94238 30.4056L7.93986 30.4025C7.89175 30.383 7.80818 30.3506 7.68661 30.3052C7.4065 30.211 7.13088 30.0978 6.86113 29.9658C6.68652 29.8763 6.48898 29.8016 6.28666 29.6777C6.08434 29.5537 5.86429 29.4233 5.63162 29.2803C5.40924 29.116 5.17423 28.9423 4.92406 28.7559C4.69181 28.5453 4.43157 28.3465 4.18686 28.0987C3.92747 27.8476 3.67997 27.5789 3.44549 27.294C3.32454 27.1471 3.20108 26.9971 3.07508 26.847C2.96186 26.6819 2.84357 26.5166 2.72529 26.3483C2.66743 26.2641 2.60446 26.183 2.54915 26.0958C2.49642 26.0025 2.44113 25.9123 2.38837 25.8221C2.28037 25.6355 2.16471 25.455 2.06183 25.2593C1.85249 24.8624 1.66095 24.4523 1.48808 24.0307C1.30987 23.5961 1.15242 23.1497 1.01655 22.6936C0.888724 22.2218 0.780671 21.7426 0.692857 21.258C0.607047 20.7696 0.544827 20.2758 0.506513 19.7791L0.483409 18.998C0.479091 18.875 0.472405 18.7243 0.475569 18.623L0.477977 18.2327C0.481868 17.191 0.485758 16.1492 0.487015 15.1228C0.488272 14.0964 0.486878 13.0883 0.485294 12.111C0.479568 10.1594 0.462909 8.33355 0.439545 6.77189C0.421277 5.20725 0.38361 3.90655 0.366398 2.99345C0.340556 2.08019 0.327008 1.56051 0.327008 1.56051Z" fill="#0A0A0A"/>
</g>
</g>
<g style="mix-blend-mode:overlay" opacity="0.6">
<g style="mix-blend-mode:overlay" opacity="0.6">
<path d="M4.9832 5.83893L4.97402 6.09377C4.95315 6.60031 4.94751 7.10409 4.93425 7.61079C4.92098 8.11748 4.91534 8.62126 4.90971 9.12504C4.90407 9.62882 4.89587 10.1356 4.89782 10.6426C4.89977 11.1496 4.89666 11.6535 4.90116 12.1574C4.91015 13.1685 4.92673 14.1797 4.95854 15.1912C4.99034 16.2027 5.02974 17.2143 5.10211 18.2266L5.17684 6.09786L7.57011 6.14616C7.95187 6.15313 8.332 6.21546 8.70236 6.33186L8.70996 6.33201C8.42755 6.20971 8.13581 6.12249 7.83933 6.07171C7.53791 6.02261 7.24641 6.00751 6.94994 5.97695C6.70665 5.95668 6.46083 5.93635 6.2175 5.92222C5.87031 5.89371 5.52561 5.87139 5.17836 5.85209L4.9832 5.83893Z" fill="white"/>
</g>
</g>
<g style="mix-blend-mode:screen" opacity="0.4">
<g style="mix-blend-mode:screen" opacity="0.4">
<path d="M9.95862 0.59586C10.0419 0.637464 10.2992 0.759361 10.6903 0.936166C10.9248 1.07603 11.2149 1.21701 11.5274 1.426C11.6837 1.53357 11.85 1.64748 12.0238 1.76769C12.1977 1.8879 12.3663 2.04178 12.5501 2.18368C12.7401 2.33597 12.9232 2.50061 13.0987 2.67689C13.1918 2.76476 13.2849 2.8557 13.3805 2.94668C13.4709 3.04678 13.5614 3.14687 13.6544 3.24702C13.7474 3.34717 13.8404 3.45345 13.9359 3.55672C14.0238 3.67212 14.1116 3.78752 14.202 3.90296C14.2924 4.01841 14.3828 4.13386 14.4732 4.25238C14.5584 4.37694 14.6437 4.50456 14.7289 4.63219C14.8142 4.75982 14.9045 4.88755 14.9846 5.02121C15.0648 5.15488 15.1423 5.2977 15.2225 5.43751C15.3878 5.71108 15.5226 6.00861 15.6675 6.30633C15.9523 6.91207 16.1922 7.54689 16.3846 8.20324C16.4813 8.53377 16.5551 8.87304 16.6416 9.20337C16.7028 9.5424 16.7665 9.88147 16.8201 10.2203C16.8509 10.5588 16.897 10.8852 16.9227 11.2266C16.9358 11.5646 16.9564 11.9243 16.9621 12.2346C16.9715 13.5798 16.9917 14.8331 17.0179 15.9084C17.0392 16.9836 17.0792 17.878 17.0981 18.5048C17.117 19.1316 17.1401 19.4914 17.1401 19.4914L17.1853 12.15C17.2016 9.53535 16.5002 6.98045 15.1917 4.88835C13.8832 2.79625 12.042 1.28601 9.95862 0.59586Z" fill="white"/>
</g>
</g>
<g style="mix-blend-mode:multiply" opacity="0.3">
<g style="mix-blend-mode:multiply" opacity="0.3">
<path d="M0.937675 0.00812553L1.26578 0.11301L1.53078 0.198195C2.45347 0.486549 3.35274 0.878903 4.21678 1.37007C4.65027 1.6091 5.07095 1.87551 5.48393 2.16017C5.69295 2.30256 5.8918 2.45395 6.09568 2.60851C6.29957 2.76307 6.49079 2.92044 6.68447 3.09015C7.46255 3.75138 8.18935 4.49781 8.85567 5.31999C9.18952 5.72586 9.50296 6.15894 9.80625 6.59796C9.93156 6.78163 10.0543 6.96525 10.1746 7.15496C10.4154 7.34969 10.6409 7.57113 10.8482 7.81638C11.326 8.37115 11.7053 9.03865 11.9622 9.77707C12.2192 10.5155 12.3484 11.309 12.3417 12.1079L12.2817 21.8787C12.2765 22.6468 12.0203 23.3782 11.5694 23.912C11.1184 24.4457 10.5096 24.7383 9.87696 24.7251C9.18156 24.712 8.49538 24.5159 7.86585 24.1501C7.23632 23.7843 6.67846 23.2577 6.23076 22.6066C6.01947 22.3037 5.83501 21.9748 5.68045 21.6253C5.77557 22.01 5.91192 22.3781 6.08592 22.7204C6.52632 23.5015 7.01193 24.2439 7.53899 24.9418C7.8024 25.2879 8.07595 25.6281 8.35973 25.9501C8.64351 26.272 8.94002 26.5789 9.24167 26.8736C9.8481 27.4604 10.4889 27.9926 11.1589 28.4658C11.8259 28.9406 12.5227 29.35 13.2427 29.69C12.5434 29.3004 11.8675 28.8506 11.2203 28.3443C10.5739 27.8431 9.9586 27.2847 9.37946 26.6737C9.08798 26.37 8.80926 26.0482 8.53814 25.7234C8.26702 25.3986 8.00611 25.0587 7.75284 24.7097C7.59236 24.4885 7.43951 24.2582 7.28667 24.028C7.56541 24.2471 7.86173 24.4311 8.17091 24.577C8.57558 24.7737 9.00038 24.9011 9.433 24.9556C9.87479 25.0336 10.3245 24.9902 10.7488 24.8287C11.1805 24.6538 11.566 24.3442 11.8667 23.9307C12.1674 23.5172 12.3729 23.0141 12.4626 22.4718C12.4859 22.3367 12.5002 22.1994 12.5056 22.0613C12.5085 21.9938 12.5139 21.9509 12.517 21.8589L12.5181 21.6717L12.5253 20.9166L12.5396 19.4064L12.5683 16.3891L12.5767 13.3714C12.5747 12.8648 12.5828 12.3768 12.5759 11.8517C12.5595 11.3237 12.4862 10.7999 12.3579 10.2938C12.1042 9.28683 11.6422 8.37356 11.0162 7.64172C10.7384 7.16638 10.4454 6.70914 10.1345 6.26383C9.82004 5.81402 9.48673 5.38404 9.13596 4.97568C8.4368 4.15594 7.67782 3.41505 6.86856 2.76231C6.66979 2.59864 6.45833 2.44085 6.25443 2.28936C6.05052 2.13787 5.83649 1.98924 5.62237 1.8529C5.19672 1.57412 4.76334 1.31667 4.31715 1.08659C3.59599 0.722739 2.85397 0.424505 2.09726 0.194312C2.82812 0.190685 3.55646 0.18394 4.28735 0.174175C3.37477 0.12193 2.45961 0.0757752 1.54695 0.0358094L0.937675 0.00812553Z" fill="#0A0A0A"/>
</g>
</g>
<defs>
<linearGradient id="paint0_linear_67_164" x1="89.6259" y1="0.661679" x2="88.2497" y2="42.7877" gradientUnits="userSpaceOnUse">
<stop stop-color="white"/>
<stop offset="1" stop-color="white" stop-opacity="0.33"/>
</linearGradient>
<linearGradient id="paint1_linear_67_164" x1="0.990959" y1="15.3086" x2="10.0994" y2="15.3765" gradientUnits="userSpaceOnUse">
<stop stop-color="white"/>
<stop offset="1" stop-color="white" stop-opacity="0.58"/>
</linearGradient>
<linearGradient id="paint2_linear_67_164" x1="17.4944" y1="15.0651" x2="6.07992" y2="14.9801" gradientUnits="userSpaceOnUse">
<stop stop-color="white" stop-opacity="0.47"/>
<stop offset="1" stop-color="#C5C5C5"/>
</linearGradient>
</defs>
</svg>
