<svg width="12" height="20" viewBox="0 0 12 20" fill="none" xmlns="http://www.w3.org/2000/svg">
<path d="M1.01763 0.0760123L0.240294 0.0630491L0.151131 12.0197C0.138386 13.7396 0.605687 15.4163 1.47623 16.7743C2.34675 18.1322 3.56875 19.0907 4.94139 19.4922C4.97048 19.5006 4.99633 19.5089 5.01735 19.5132C5.03352 19.5174 5.04968 19.5216 5.06586 19.5239L5.06585 19.5259L5.06747 19.5259C5.0691 19.5239 5.06909 19.5259 5.06909 19.5259L5.07233 19.526C5.07634 19.5285 5.08075 19.5299 5.08525 19.5301C5.08588 19.5309 5.08665 19.5315 5.08749 19.5318C5.08833 19.5322 5.0892 19.5323 5.0901 19.5322C5.33153 19.5942 5.57561 19.6391 5.82117 19.6669C5.97977 19.6833 6.14166 19.6939 6.3036 19.6966C6.37972 19.6979 6.45583 19.6992 6.53037 19.6945C7.21139 19.6671 7.87835 19.4563 8.48341 19.0771C8.07939 18.8701 7.68724 18.6299 7.30967 18.3582C5.98112 17.4094 4.84794 16.1014 3.99782 14.5355C3.86275 14.3411 3.74489 14.1299 3.64619 13.9054C3.64459 13.9034 3.64459 13.9034 3.6446 13.9014C3.58139 13.7604 3.52619 13.6142 3.47942 13.464C3.33698 13.0203 3.26626 12.5475 3.27115 12.0717L3.33193 3.92153L4.86068 3.94703C5.10454 3.95062 5.34731 3.98981 5.58379 4.06379L5.58865 4.06387C5.92631 4.17075 6.24699 4.34643 6.53713 4.58346C6.69122 4.7082 6.83547 4.85016 6.96803 5.00749C6.1346 3.54994 5.05224 2.32933 3.79591 1.43017C2.93051 0.810663 1.99379 0.354094 1.01763 0.0760123Z" fill="url(#paint0_linear_1472_3881)"/>
<path d="M4.88554 0.138116L1.01633 0.0735634C1.99199 0.351482 2.92824 0.80791 3.79319 1.4273C5.0486 2.32617 6.13015 3.5464 6.96295 5.00349C7.26827 5.35923 7.51042 5.78773 7.67424 6.26214C7.83809 6.73657 7.92006 7.24668 7.91508 7.76059L7.86823 14.0461C7.86429 14.5402 7.69968 15.0112 7.4106 15.3557C7.12152 15.7001 6.73165 15.8897 6.32673 15.8827C5.88168 15.8759 5.4427 15.7513 5.04011 15.5175C4.63752 15.2837 4.28092 14.9463 3.99494 14.5285C4.84425 16.0938 5.97635 17.4013 7.30368 18.3499C7.68097 18.6215 8.07284 18.8616 8.47655 19.0686C9.22697 18.5993 9.85729 17.8884 10.2996 17.0125C10.7419 16.1366 10.9794 15.1289 10.9866 14.0981L11.0334 7.81262C11.0461 6.13101 10.5997 4.48953 9.76456 3.14711C8.92941 1.80469 7.75308 0.837729 6.42111 0.398754C6.41604 0.395648 6.41058 0.393562 6.40497 0.39256C5.90876 0.23152 5.39839 0.14604 4.88554 0.138116Z" fill="url(#paint1_linear_1472_3881)"/>
<g style="mix-blend-mode:multiply" opacity="0.15">
<g style="mix-blend-mode:multiply" opacity="0.15">
<path d="M1.03306 0.0787458L0.257049 0.0630637C0.257049 0.0630637 2.2559 0.266122 4.01279 3.79049C4.03355 3.83207 4.05432 3.87365 4.07507 3.91719L4.87533 3.93336C5.11877 3.93781 5.36118 3.9776 5.59735 4.05184L5.6022 4.05194C5.93942 4.15922 6.25978 4.33467 6.54974 4.57089C6.70373 4.69521 6.84793 4.83658 6.98047 4.99316C6.14652 3.54401 5.06439 2.32903 3.80902 1.43237C2.94407 0.814491 2.00814 0.358116 1.03306 0.0787458Z" fill="#0A0A0A"/>
</g>
</g>
<g style="mix-blend-mode:multiply" opacity="0.15">
<g style="mix-blend-mode:multiply" opacity="0.15">
<path d="M3.45891 13.4713C3.45891 13.4713 3.48049 16.2892 5.80792 19.6574C5.96651 19.6744 6.12838 19.6855 6.2903 19.6888C6.3664 19.6904 6.4425 19.6919 6.51702 19.6875C7.19787 19.6628 7.86442 19.4552 8.46885 19.0798C8.06463 18.8721 7.67223 18.6315 7.29437 18.3595C5.96479 17.4097 4.83007 16.103 3.978 14.5404C3.8427 14.3462 3.72458 14.1355 3.6256 13.9115C3.62399 13.9095 3.62399 13.9095 3.624 13.9075C3.56084 13.7668 3.50567 13.6211 3.45891 13.4713Z" fill="#0A0A0A"/>
</g>
</g>
<g style="mix-blend-mode:multiply" opacity="0.3">
<g style="mix-blend-mode:multiply" opacity="0.3">
<path d="M5.04766 19.5355C5.05174 19.5377 5.05609 19.5393 5.06055 19.54C5.05871 19.5379 5.05502 19.5378 5.05135 19.5356L5.04766 19.5355Z" fill="#0A0A0A"/>
</g>
</g>
<g style="mix-blend-mode:multiply" opacity="0.3">
<g style="mix-blend-mode:multiply" opacity="0.3">
<path d="M0.210479 1.00258L0.142517 12.0156C0.13199 13.7346 0.604828 15.4123 1.48331 16.7728C2.36178 18.1333 3.59367 19.0957 4.9765 19.502C5.00581 19.5105 5.03185 19.5189 5.05303 19.5233C5.0691 19.5287 5.08541 19.533 5.10189 19.5361L5.10352 19.5361L5.1019 19.5341C5.07098 19.5217 5.01729 19.5008 4.93918 19.4716C4.7592 19.4111 4.58211 19.3384 4.40879 19.2536C4.2966 19.196 4.16967 19.1481 4.03968 19.0684C3.90968 18.9888 3.7683 18.905 3.6188 18.8131C3.47592 18.7076 3.32492 18.5959 3.16418 18.4762C3.01496 18.3409 2.84774 18.2131 2.69051 18.0539C2.52385 17.8925 2.36482 17.7199 2.21417 17.5369C2.13646 17.4425 2.05713 17.3461 1.97617 17.2497C1.90343 17.1436 1.82742 17.0374 1.75143 16.9292C1.71425 16.8752 1.67379 16.823 1.63825 16.767C1.60437 16.7071 1.56884 16.6491 1.53495 16.5912C1.46555 16.4713 1.39124 16.3553 1.32514 16.2295C1.19063 15.9745 1.06756 15.711 0.956495 15.4402C0.841988 15.1609 0.740821 14.8741 0.653524 14.581C0.571394 14.2779 0.501967 13.97 0.445545 13.6586C0.39041 13.3448 0.350432 13.0275 0.325815 12.7084L0.31097 12.2066C0.308196 12.1275 0.3039 12.0307 0.305933 11.9656L0.30748 11.7148C0.30998 11.0455 0.312479 10.3761 0.313287 9.71662C0.314095 9.05712 0.313199 8.40943 0.312181 7.78148C0.308502 6.52753 0.297799 5.3544 0.282787 4.351C0.271049 3.34568 0.246848 2.50996 0.235788 1.92327C0.219184 1.33648 0.210479 1.00258 0.210479 1.00258Z" fill="#0A0A0A"/>
</g>
</g>
<g style="mix-blend-mode:overlay" opacity="0.6">
<g style="mix-blend-mode:overlay" opacity="0.6">
<path d="M3.20168 3.75165L3.19578 3.91538C3.18237 4.24085 3.17875 4.56454 3.17023 4.8901C3.16171 5.21566 3.15808 5.53935 3.15446 5.86304C3.15084 6.18673 3.14557 6.51236 3.14682 6.83812C3.14807 7.16388 3.14608 7.4876 3.14897 7.81142C3.15474 8.46103 3.1654 9.11074 3.18583 9.76065C3.20627 10.4106 3.23159 11.0606 3.27808 11.711L3.3261 3.91801L4.86382 3.94905C5.10911 3.95353 5.35335 3.99358 5.59132 4.06836L5.5962 4.06846C5.41474 3.98988 5.2273 3.93384 5.03681 3.90121C4.84313 3.86966 4.65584 3.85996 4.46535 3.84032C4.30903 3.8273 4.15109 3.81424 3.99475 3.80516C3.77167 3.78684 3.55019 3.7725 3.32707 3.7601L3.20168 3.75165Z" fill="white"/>
</g>
</g>
<g style="mix-blend-mode:screen" opacity="0.4">
<g style="mix-blend-mode:screen" opacity="0.4">
<path d="M6.3994 0.382664C6.45289 0.409396 6.61824 0.487716 6.86955 0.601318C7.0202 0.69118 7.20661 0.781765 7.40739 0.916048C7.50777 0.985162 7.61462 1.05835 7.72633 1.13559C7.83804 1.21283 7.94636 1.3117 8.06449 1.40287C8.18657 1.50072 8.30423 1.60651 8.41697 1.71977C8.47678 1.77623 8.53658 1.83466 8.598 1.89312C8.65613 1.95743 8.71427 2.02174 8.77403 2.08609C8.83379 2.15044 8.89352 2.21873 8.9549 2.28508C9.01135 2.35922 9.06779 2.43337 9.12587 2.50755C9.18394 2.58172 9.24202 2.6559 9.30008 2.73205C9.35486 2.81208 9.40964 2.89409 9.46442 2.97609C9.51919 3.05809 9.57721 3.14016 9.62871 3.22604C9.68021 3.31193 9.73005 3.40369 9.78152 3.49352C9.88775 3.6693 9.97437 3.86047 10.0675 4.05176C10.2504 4.44096 10.4046 4.84885 10.5282 5.27056C10.5903 5.48293 10.6378 5.70093 10.6934 5.91317C10.7327 6.131 10.7736 6.34886 10.808 6.56659C10.8278 6.78403 10.8574 6.99377 10.874 7.21311C10.8824 7.43032 10.8956 7.66143 10.8993 7.86079C10.9053 8.7251 10.9183 9.53037 10.9352 10.2213C10.9488 10.9121 10.9745 11.4868 10.9867 11.8895C10.9988 12.2923 11.0137 12.5234 11.0137 12.5234L11.0427 7.80647C11.0532 6.12647 10.6025 4.4849 9.76175 3.14068C8.92099 1.79646 7.73802 0.826097 6.3994 0.382664Z" fill="white"/>
</g>
</g>
<g style="mix-blend-mode:multiply" opacity="0.3">
<g style="mix-blend-mode:multiply" opacity="0.3">
<path d="M0.601596 0.00544384L0.81241 0.072834L0.98268 0.127568C1.57553 0.312841 2.15333 0.564936 2.70849 0.880525C2.98702 1.03411 3.25731 1.20527 3.52266 1.38818C3.65696 1.47966 3.78472 1.57693 3.91572 1.67624C4.04672 1.77555 4.16959 1.87667 4.29403 1.98571C4.79396 2.41056 5.26094 2.89016 5.68907 3.41843C5.90357 3.6792 6.10497 3.95747 6.29984 4.23955C6.38035 4.35756 6.45925 4.47554 6.53649 4.59743C6.69123 4.72255 6.83614 4.86483 6.96933 5.02241C7.27631 5.37886 7.52 5.80774 7.68511 6.28219C7.85022 6.75667 7.93322 7.26649 7.92891 7.77978L7.89034 14.0577C7.88705 14.5513 7.72243 15.0212 7.43268 15.3642C7.14293 15.7071 6.75178 15.8951 6.34527 15.8866C5.89847 15.8782 5.45758 15.7522 5.05309 15.5171C4.64861 15.2821 4.29017 14.9438 4.00251 14.5254C3.86675 14.3308 3.74824 14.1195 3.64893 13.895C3.71005 14.1421 3.79765 14.3786 3.90945 14.5985C4.19242 15.1004 4.50443 15.5774 4.84308 16.0258C5.01232 16.2482 5.18808 16.4668 5.37042 16.6737C5.55275 16.8805 5.74327 17.0777 5.93709 17.267C6.32673 17.6441 6.73843 17.9861 7.16892 18.2901C7.59749 18.5952 8.04522 18.8582 8.50781 19.0767C8.05849 18.8263 7.62425 18.5374 7.20839 18.212C6.79307 17.89 6.39772 17.5312 6.02561 17.1387C5.83833 16.9435 5.65925 16.7367 5.48505 16.528C5.31085 16.3194 5.14321 16.101 4.98048 15.8767C4.87737 15.7346 4.77916 15.5866 4.68096 15.4387C4.86006 15.5795 5.05044 15.6977 5.2491 15.7914C5.50911 15.9178 5.78205 15.9997 6.06002 16.0347C6.34388 16.0848 6.63279 16.057 6.90543 15.9532C7.18284 15.8408 7.4305 15.6419 7.62372 15.3762C7.81691 15.1105 7.94893 14.7873 8.00661 14.4388C8.02154 14.352 8.03078 14.2638 8.03423 14.1751C8.03612 14.1317 8.03954 14.1042 8.04153 14.045L8.04227 13.9247L8.04687 13.4395L8.05608 12.4692L8.07449 10.5305L8.07991 8.5916C8.07866 8.2661 8.08383 7.95256 8.0794 7.61516C8.06885 7.27592 8.02175 6.93939 7.93932 6.6142C7.77634 5.9672 7.47949 5.38041 7.07726 4.91019C6.89878 4.60477 6.71048 4.31099 6.51076 4.02486C6.3087 3.73585 6.09454 3.45958 5.86916 3.1972C5.41994 2.6705 4.93228 2.19447 4.41231 1.77506C4.28459 1.6699 4.14873 1.56852 4.01772 1.47119C3.88671 1.37385 3.74918 1.27835 3.61161 1.19075C3.33812 1.01162 3.05966 0.846209 2.77298 0.69838C2.30962 0.464599 1.83285 0.272976 1.34666 0.125073C1.81624 0.122743 2.28422 0.118408 2.75383 0.112134C2.16748 0.078566 1.57947 0.0489105 0.99307 0.0232319L0.601596 0.00544384Z" fill="#0A0A0A"/>
</g>
</g>
<defs>
<linearGradient id="paint0_linear_1472_3881" x1="0.636967" y1="9.8359" x2="6.48931" y2="9.87954" gradientUnits="userSpaceOnUse">
<stop stop-color="white"/>
<stop offset="1" stop-color="white" stop-opacity="0.58"/>
</linearGradient>
<linearGradient id="paint1_linear_1472_3881" x1="11.2412" y1="9.67944" x2="3.90712" y2="9.62478" gradientUnits="userSpaceOnUse">
<stop stop-color="white" stop-opacity="0.47"/>
<stop offset="1" stop-color="#C5C5C5"/>
</linearGradient>
</defs>
</svg>
